{"title":"The Boxtrolls 2014 720p HDRIP x264 AC3 ACAB","uid":11543639,"size":2402354037,"categoryP":"video","categoryS":"hd___movies","magnet":"?xt=urn:btih:8c7ec3b131536a81ee8539275e1acf1cf078fea9&amp;dn=The+Boxtrolls+2014+720p+HDRIP+x264+AC3+ACAB&amp;tr=udp%3A%2F%2Ftracker.openbittorrent.com%3A80&amp;tr=udp%3A%2F%2Fopen.demonii.com%3A1337&amp;tr=udp%3A%2F%2Ftracker.coppersurfer.tk%3A6969&amp;tr=udp%3A%2F%2Fexodus.desync.com%3A6969","seeders":2,"leechers":0,"uploader":"TvTeam","files":4,"time":1416697748,"description":" &lt;a href=&quot;http://www.torrenting.com&quot; rel=&quot;nofollow&quot; target=&quot;_NEW&quot;&gt;http://www.torrenting.com&lt;/a&gt;\n\nSign up is OPEN - for time being. Come and have fun.\n\n------------------------------------------------------------------[b][center][IMG]http://s3.postimg.org/pzp2a4577/The_Boxtrolls_2014_DVD_Cover.jpg[/IMG]\n\n[color=red]CLICK IMAGE FOR IMDB[/color]\n\n\n[IMG]http://i.imgur.com/jzdABoE.png[/IMG]\n\nFormat                                   : Matroska\nFormat version                           : Version 2\nFile size                                : 2.18 GiB\nDuration                                 : 1h 36mn\nOverall bit rate                         : 3 253 Kbps\nEncoded date                             : UTC 2014-11-22 09:53:22\nWriting application                      : mkvmerge v7.0.0 ('Where We Going') 32bit built on Jun  9 2014 15:08:34\nWriting library                          : libebml v1.3.0 + libmatroska v1.4.1\n\nVideo\nID                                       : 1\nFormat                                   : AVC\nFormat/Info                              : Advanced Video Codec\nFormat profile                           : &lt;a class=&quot;__cf_email__&quot; href=&quot;/cdn-cgi/l/email-protection&quot; data-cfemail=&quot;337b5a545b737f061d02&quot;&gt;[email&amp;#160;protected]&lt;/a&gt;&lt;script cf-hash='f9e31' type=&quot;text/javascript&quot;&gt;\n/* &lt;![CDATA[ */!function(){try{var t=&quot;currentScript&quot;in document?document.currentScript:function(){for(var t=document.getElementsByTagName(&quot;script&quot;),e=t.length;e--;)if(t[e].getAttribute(&quot;cf-hash&quot;))return t[e]}();if(t&amp;&amp;t.previousSibling){var e,r,n,i,c=t.previousSibling,a=c.getAttribute(&quot;data-cfemail&quot;);if(a){for(e=&quot;&quot;,r=parseInt(a.substr(0,2),16),n=2;a.length-n;n+=2)i=parseInt(a.substr(n,2),16)^r,e+=String.fromCharCode(i);e=document.createTextNode(e),c.parentNode.replaceChild(e,c)}}}catch(u){}}();/* ]]&gt; */&lt;/script&gt;\nFormat settings, CABAC                   : Yes\nFormat settings, ReFrames                : 4 frames\nCodec ID                                 : V_MPEG4/ISO/AVC\nDuration                                 : 1h 36mn\nBit rate                                 : 3 000 Kbps\nWidth                                    : 1 280 pixels\nHeight                                   : 718 pixels\nDisplay aspect ratio                     : 16:9\nFrame rate mode                          : Constant\nFrame rate                               : 23.976 fps\nColor space                              : YUV\nChroma subsampling                       : 4:2:0\nBit depth                                : 8 bits\nScan type                                : Progressive\nBits/(Pixel*Frame)                       : 0.136\nStream size                              : 1.97 GiB (90%)\nWriting library                          : x264 core 142 r2431 ac76440\nLanguage                                 : English\nDefault                                  : Yes\nForced                                   : No\n\nAudio\nID                                       : 2\nFormat                                   : AC-3\nFormat/Info                              : Audio Coding 3\nMode extension                           : CM (complete main)\nFormat settings, Endianness              : Big\nCodec ID                                 : A_AC3\nDuration                                 : 1h 36mn\nBit rate mode                            : Constant\nBit rate                                 : 256 Kbps\nChannel(s)                               : 2 channels\nChannel positions                        : Front: L R\nSampling rate                            : 48.0 KHz\nBit depth                                : 16 bits\nCompression mode                         : Lossy\nDelay relative to video                  : 2s 980ms\nStream size                              : 176 MiB (8%)\nLanguage                                 : English\nDefault                                  : Yes\nForced                                   : No\n\n[IMG]http://i.imgur.com/wB1VfhA.png[/IMG]\n\n[IMG]http://s3.postimg.org/uf7hfdhlf/The_Boxtrolls_2014_720p_HDRIP_x264_AC3_ACAB_009.jpg[/IMG]\n\n[IMG]http://s3.postimg.org/8u2errkur/The_Boxtrolls_2014_720p_HDRIP_x264_AC3_ACAB_029.jpg[/IMG]\n\n[IMG]http://s3.postimg.org/4mc7wr8sz/The_Boxtrolls_2014_720p_HDRIP_x264_AC3_ACAB_038.jpg[/IMG]\n\n[IMG]http://s3.postimg.org/n36mnkor7/The_Boxtrolls_2014_720p_HDRIP_x264_AC3_ACAB_050.jpg[/IMG]\n\n[IMG]http://i.imgur.com/ec7eRox.gif[/IMG]\n\n[IMG]http://i.imgur.com/QLR6qtw.png[/IMG]\n\n[IMG]http://i.imgur.com/V7ozKuR.png[/IMG]\n\nSource---1080p Russian WEB-DL\nAudio R6 Release [Thanks]\n\n[IMG]http://i.imgur.com/2NlYL7R.png[/IMG]\n\nto  All[/center][/b]","torrent":{"xt":"urn:btih:8c7ec3b131536a81ee8539275e1acf1cf078fea9","amp;dn":"The+Boxtrolls+2014+720p+HDRIP+x264+AC3+ACAB","amp;tr":["udp%3A%2F%2Ftracker.openbittorrent.com%3A80","udp%3A%2F%2Fopen.demonii.com%3A1337","udp%3A%2F%2Ftracker.coppersurfer.tk%3A6969","udp%3A%2F%2Fexodus.desync.com%3A6969"],"infoHash":"8c7ec3b131536a81ee8539275e1acf1cf078fea9","infoHashBuffer":{"type":"Buffer","data":[140,126,195,177,49,83,106,129,238,133,57,39,94,26,207,28,240,120,254,169]},"announce":[],"urlList":[]}}